<svg
  xmlns="http://www.w3.org/2000/svg"
  viewBox="0 0 360 24"
  width="360"
  height="24"
>

  <svg
    id="play_next"
    x="0"
    y="0"
    width="24"
    height="24"
    viewBox="0 0 24 24"
    fill="none"
    stroke="currentColor"
    stroke-width="1"
    vector-effect="non-scaling-stroke"
    stroke-linecap="round"
    stroke-linejoin="round"
    xmlns="http://www.w3.org/2000/svg"
  >
    <path d="M 8 20 L 8 12 Q 8 8 12 8 L 20 8 M 16 4 L 20 8 L 16 12" />
  </svg>

  <svg
    id="remove_from_queue"
    x="24"
    y="0"
    width="24"
    height="24"
    viewBox="0 0 24 24"
    fill="none"
    stroke="currentColor"
    stroke-width="1"
    vector-effect="non-scaling-stroke"
    stroke-linecap="round"
    stroke-linejoin="round"
    xmlns="http://www.w3.org/2000/svg"
  >
    <path d="M 6 6 L 18 18 M 18 6 L 6 18" />
  </svg>

  <svg
    id="remove_from_playlist"
    x="24"
    y="0"
    width="24"
    height="24"
    viewBox="0 0 24 24"
    fill="none"
    stroke="currentColor"
    stroke-width="1"
    vector-effect="non-scaling-stroke"
    stroke-linecap="round"
    stroke-linejoin="round"
    xmlns="http://www.w3.org/2000/svg"
  >
    <path d="M 6 6 L 18 18 M 18 6 L 6 18" />
  </svg>

  <svg
    id="delete_playlist"
    x="24"
    y="0"
    width="24"
    height="24"
    viewBox="0 0 24 24"
    fill="none"
    stroke="currentColor"
    stroke-width="1"
    vector-effect="non-scaling-stroke"
    stroke-linecap="round"
    stroke-linejoin="round"
    xmlns="http://www.w3.org/2000/svg"
  >
    <path d="M 6 6 L 18 18 M 18 6 L 6 18" />
  </svg>

  <svg
    id="love_track"
    x="48"
    y="0"
    width="24"
    height="24"
    viewBox="0 0 24 24"
    fill="none"
    stroke="currentColor"
    stroke-width="1"
    vector-effect="non-scaling-stroke"
    stroke-linecap="round"
    stroke-linejoin="round"
    xmlns="http://www.w3.org/2000/svg"
  >
    <path
      d="M 12 19 C 12 19 3.5 14 3.5 9 C 3.5 5.8 6.5 4 9 4 C 10.8 4 12 6.8 12 6.8 C 12 6.8 13.2 4 15 4 C 17.5 4 20.5 5.8 20.5 9 C 20.5 14 12 19 12 19 Z"
    />
  </svg>

  <svg
    id="unlove_track"
    x="72"
    y="0"
    width="24"
    height="24"
    viewBox="0 0 24 24"
    fill="none"
    stroke="currentColor"
    stroke-width="1"
    vector-effect="non-scaling-stroke"
    stroke-linecap="round"
    stroke-linejoin="round"
    xmlns="http://www.w3.org/2000/svg"
  >
    <defs>
      <mask id="heart-mask">
        <rect width="24" height="24" fill="white" stroke="none" />
        <line x1="4" y1="4" x2="20" y2="20" stroke="black" stroke-width="4" />
      </mask>
    </defs>
    <path
      mask="url(#heart-mask)"
      d="M 12 19 C 12 19 3.5 14 3.5 9 C 3.5 5.8 6.5 4 9 4 C 10.8 4 12 6.8 12 6.8 C 12 6.8 13.2 4 15 4 C 17.5 4 20.5 5.8 20.5 9 C 20.5 14 12 19 12 19 Z"
    />
    <line class="accent" x1="4" y1="4" x2="19" y2="19" />
  </svg>

  <svg
    id="add_to_playlist"
    x="96"
    y="0"
    width="24"
    height="24"
    viewBox="0 0 24 24"
    fill="none"
    stroke="currentColor"
    stroke-width="1"
    vector-effect="non-scaling-stroke"
    stroke-linecap="round"
    stroke-linejoin="round"
    xmlns="http://www.w3.org/2000/svg"
  >
    <defs>
      <mask id="cd-mask">
        <rect width="24" height="24" fill="white" stroke="none" />
        <line x1="15" y1="18" x2="21" y2="18" stroke="black" stroke-width="6" />
        <line x1="18" y1="15" x2="18" y2="21" stroke="black" stroke-width="6" />
      </mask>
    </defs>
    <g mask="url(#cd-mask)">
      <circle cx="12" cy="12" r="9" />
      <circle cx="12" cy="12" r="3" />
    </g>
    <line class="accent" x1="15" y1="18" x2="21" y2="18" />
    <line class="accent" x1="18" y1="15" x2="18" y2="21" />
  </svg>

  <svg
    id="rename_collection"
    x="120"
    y="0"
    width="24"
    height="24"
    viewBox="0 0 24 24"
    fill="none"
    stroke="currentColor"
    stroke-width="1"
    vector-effect="non-scaling-stroke"
    stroke-linecap="round"
    stroke-linejoin="round"
    xmlns="http://www.w3.org/2000/svg"
  >
    <path d="M 17 3 L 21 7 L 7 21 L 3 21 L 3 17 Z" />
    <line x1="14" y1="6" x2="18" y2="10" />
  </svg>

    <svg
    id="rename_playlist"
    x="120"
    y="0"
    width="24"
    height="24"
    viewBox="0 0 24 24"
    fill="none"
    stroke="currentColor"
    stroke-width="1"
    vector-effect="non-scaling-stroke"
    stroke-linecap="round"
    stroke-linejoin="round"
    xmlns="http://www.w3.org/2000/svg"
  >
    <path d="M 17 3 L 21 7 L 7 21 L 3 21 L 3 17 Z" />
    <line x1="14" y1="6" x2="18" y2="10" />
  </svg>

  <svg
    id="set_sources"
    x="144"
    y="0"
    width="24"
    height="24"
    viewBox="0 0 24 24"
    fill="none"
    stroke="currentColor"
    stroke-width="1"
    vector-effect="non-scaling-stroke"
    stroke-linecap="round"
    stroke-linejoin="round"
    xmlns="http://www.w3.org/2000/svg"
  >
    <path
      d="M 5 4 H 9 L 11 6 H 19 C 20.1 6 21 6.9 21 8 V 18 C 21 19.1 20.1 20 19 20 H 5 C 3.9 20 3 19.1 3 18 V 6 C 3 4.9 3.9 4 5 4 Z"
    />

  </svg>

  <svg
    id="show_playlist_directory"
    x="144"
    y="0"
    width="24"
    height="24"
    viewBox="0 0 24 24"
    fill="none"
    stroke="currentColor"
    stroke-width="1"
    vector-effect="non-scaling-stroke"
    stroke-linecap="round"
    stroke-linejoin="round"
    xmlns="http://www.w3.org/2000/svg"
  >
    <path
      d="M 5 4 H 9 L 11 6 H 19 C 20.1 6 21 6.9 21 8 V 18 C 21 19.1 20.1 20 19 20 H 5 C 3.9 20 3 19.1 3 18 V 6 C 3 4.9 3.9 4 5 4 Z"
    />

  </svg>

  <svg
    id="rescan"
    x="168"
    y="0"
    width="24"
    height="24"
    viewBox="0 0 24 24"
    fill="none"
    stroke="currentColor"
    stroke-width="1"
    vector-effect="non-scaling-stroke"
    stroke-linecap="round"
    stroke-linejoin="round"
    xmlns="http://www.w3.org/2000/svg"
  >
    <path d="M 3.5 12 A 8.5 8.5 0 0 1 18 5.5" />
    <polyline points="14 5.5 18 5.5 18 1.5" />
    <path d="M 20.5 12 A 8.5 8.5 0 0 1 6 18.5" />
    <polyline points="10 18.5 6 18.5 6 22.5" />
  </svg>

  <svg
    id="delete_collection"
    x="24"
    y="0"
    width="24"
    height="24"
    viewBox="0 0 24 24"
    fill="none"
    stroke="currentColor"
    stroke-width="1"
    vector-effect="non-scaling-stroke"
    stroke-linecap="round"
    stroke-linejoin="round"
    xmlns="http://www.w3.org/2000/svg"
  >
    <path d="M 6 6 L 18 18 M 18 6 L 6 18" />
  </svg>

  <svg
    id="delete_playlist"
    x="24"
    y="0"
    width="24"
    height="24"
    viewBox="0 0 24 24"
    fill="none"
    stroke="currentColor"
    stroke-width="1"
    vector-effect="non-scaling-stroke"
    stroke-linecap="round"
    stroke-linejoin="round"
    xmlns="http://www.w3.org/2000/svg"
  >
    <path d="M 6 6 L 18 18 M 18 6 L 6 18" />
  </svg>

  <svg
    id="show_in_playlist"
    x="216"
    y="0"
    width="24"
    height="24"
    viewBox="0 0 24 24"
    fill="none"
    stroke="currentColor"
    stroke-width="1"
    vector-effect="non-scaling-stroke"
    stroke-linecap="round"
    stroke-linejoin="round"
    xmlns="http://www.w3.org/2000/svg"
  >
    <polygon points="4,6 10,9.5 4,13" />
    <line x1="13" y1="7" x2="20" y2="7" />
    <line x1="13" y1="12" x2="20" y2="12" />
    <line x1="4" y1="17" x2="20" y2="17" />
  </svg>

  <svg
    id="show_in_album"
    x="240"
    y="0"
    width="24"
    height="24"
    viewBox="0 0 24 24"
    fill="none"
    stroke="currentColor"
    stroke-width="1"
    vector-effect="non-scaling-stroke"
    stroke-linecap="round"
    stroke-linejoin="round"
    xmlns="http://www.w3.org/2000/svg"
  >
    <circle cx="12" cy="12" r="9" />
    <circle cx="12" cy="12" r="3" />
  </svg>

 <svg
    id="search"
    x="264"
    y="0"
    width="24"
    height="24"
    viewBox="0 0 24 24"
    fill="none"
    stroke="currentColor"
    stroke-width="1"
    vector-effect="non-scaling-stroke"
    stroke-linecap="round"
    stroke-linejoin="round"
    xmlns="http://www.w3.org/2000/svg"
  >
    <circle cx="10" cy="10" r="6" />
    <line x1="14.24" y1="14.24" x2="20" y2="20" />
  </svg>

  <svg
    id="settings"
    width="24"
    height="24"
    viewBox="0 0 24 24"
    fill="none"
    stroke="currentColor"
    stroke-width="1"
    vector-effect="non-scaling-stroke"
    stroke-linecap="round"
    stroke-linejoin="round"
    xmlns="http://www.w3.org/2000/svg"
  >
    <circle cx="12" cy="12" r="3" />
    <path
      d="M 10.5 2.2 H 13.5 L 14 4.7 L 16 5.5 L 18 3.9 L 20.1 6 L 18.5 8 L 19.3 10 L 21.8 10.5 V 13.5 L 19.3 14 L 18.5 16 L 20.1 18.1 L 18 20.1 L 16 18.5 L 14 19.3 L 13.5 21.8 H 10.5 L 10 19.3 L 8 18.5 L 6 20.1 L 3.9 18.1 L 5.5 16 L 4.7 14 L 2.2 13.5 V 10.5 L 4.7 10 L 5.5 8 L 3.9 6 L 6 3.9 L 8 5.5 L 10 4.7 Z"
    />
  </svg>



  <svg
    id="about"
    x="312"
    y="0"
    width="24"
    height="24"
    viewBox="0 0 24 24"
    fill="none"
    stroke="currentColor"
    stroke-width="1"
    vector-effect="non-scaling-stroke"
    stroke-linecap="round"
    stroke-linejoin="round"
    xmlns="http://www.w3.org/2000/svg"
  >
    <circle cx="12" cy="12" r="9" />
    <line x1="12" y1="11" x2="12" y2="16" />
    <line x1="12" y1="8" x2="12" y2="8" stroke-width="2" />
  </svg>

  <svg
    id="quit"
    x="336"
    y="0"
    width="24"
    height="24"
    viewBox="0 0 24 24"
    fill="none"
    stroke="currentColor"
    stroke-width="1"
    vector-effect="non-scaling-stroke"
    stroke-linecap="round"
    stroke-linejoin="round"
    xmlns="http://www.w3.org/2000/svg"
  >
    <path d="M 14 5 V 3 H 4 V 21 H 14 V 19" />
    <line x1="10" y1="12" x2="20" y2="12" />
    <polyline points="17 9 20 12 17 15" />
  </svg>


<svg
    id="clear_queue"
    width="24"
    height="24"
    viewBox="0 0 24 24"
    fill="none"
    stroke="currentColor"
    stroke-width="1"
    vector-effect="non-scaling-stroke"
    stroke-linecap="round"
    stroke-linejoin="round"
    xmlns="http://www.w3.org/2000/svg"
  >
  <defs>
    <mask id="clear-queue-mask">
      <rect width="24" height="24" fill="white" stroke="none" />
      <line x1="16" y1="16" x2="22" y2="22" stroke="black" stroke-width="4" />
      <line x1="22" y1="16" x2="16" y2="22" stroke="black" stroke-width="4" />
    </mask>
  </defs>
  <g mask="url(#clear-queue-mask)">
    <rect x="4" y="5" width="16" height="3" rx="1" />
    <rect x="4" y="10.5" width="16" height="3" rx="1" />
    <rect x="4" y="16" width="16" height="3" rx="1" />
  </g>
  <line class="accent" x1="16" y1="16" x2="22" y2="22" />
  <line class="accent" x1="22" y1="16" x2="16" y2="22" />
</svg>
<svg
    id="save_queue_as_playlist"
    width="24"
    height="24"
    viewBox="0 0 24 24"
    fill="none"
    stroke="currentColor"
    stroke-width="1"
    vector-effect="non-scaling-stroke"
    stroke-linecap="round"
    stroke-linejoin="round"
    xmlns="http://www.w3.org/2000/svg"
  >
  <defs>
    <mask id="save-queue-mask">
      <rect width="24" height="24" fill="white" stroke="none" />
      <line x1="19" y1="15" x2="19" y2="23" stroke="black" stroke-width="4" />
      <line x1="15" y1="19" x2="23" y2="19" stroke="black" stroke-width="4" />
    </mask>
  </defs>
  <g mask="url(#save-queue-mask)">
    <rect x="4" y="5" width="16" height="3" rx="1" />
    <rect x="4" y="10.5" width="16" height="3" rx="1" />
    <rect x="4" y="16" width="16" height="3" rx="1" />
  </g>
  <line class="accent" x1="19" y1="16" x2="19" y2="22" />
  <line class="accent" x1="16" y1="19" x2="22" y2="19" />
</svg>
<svg
    id="play_track"
    width="24"
    height="24"
    viewBox="0 0 24 24"
    fill="none"
    stroke="currentColor"
    stroke-width="1"
    vector-effect="non-scaling-stroke"
    stroke-linecap="round"
    stroke-linejoin="round"
    xmlns="http://www.w3.org/2000/svg"
  >
  <path
      d="M 9.2 5.55 C 8.65 5.2 8 5.55 8 6.2 V 17.8 C 8 18.45 8.65 18.8 9.2 18.45 L 18.55 12.65 C 19.15 12.3 19.15 11.7 18.55 11.35 Z"
    />
</svg>


<svg
    id="append_to_queue"
    width="24"
    height="24"
    viewBox="0 0 24 24"
    fill="none"
    stroke="currentColor"
    stroke-width="1"
    vector-effect="non-scaling-stroke"
    stroke-linecap="round"
    stroke-linejoin="round"
    xmlns="http://www.w3.org/2000/svg"
  >
  <defs>
    <mask id="save-queue-mask">
      <rect width="24" height="24" fill="white" stroke="none" />
      <line x1="19" y1="15" x2="19" y2="23" stroke="black" stroke-width="4" />
      <line x1="15" y1="19" x2="23" y2="19" stroke="black" stroke-width="4" />
    </mask>
  </defs>
  <g mask="url(#save-queue-mask)">
    <rect x="4" y="5" width="16" height="3" rx="1" />
    <rect x="4" y="10.5" width="16" height="3" rx="1" />
    <rect x="4" y="16" width="16" height="3" rx="1" />
  </g>
  <line class="accent" x1="19" y1="16" x2="19" y2="22" />
  <line class="accent" x1="16" y1="19" x2="22" y2="19" />
</svg>
<svg
    id="name_asc"
    width="24"
    height="24"
    viewBox="0 0 24 24"
    fill="none"
    stroke="currentColor"
    stroke-width="1"
    vector-effect="non-scaling-stroke"
    stroke-linecap="round"
    stroke-linejoin="round"
    xmlns="http://www.w3.org/2000/svg"
  >
  <line x1="4" y1="7" x2="14" y2="7" />
  <line x1="4" y1="12" x2="11" y2="12" />
  <line x1="4" y1="17" x2="8" y2="17" />
  <line x1="18" y1="6" x2="18" y2="18" />
  <polyline points="15,15 18,18 21,15" />
</svg>
<svg
    id="name_desc"
    width="24"
    height="24"
    viewBox="0 0 24 24"
    fill="none"
    stroke="currentColor"
    stroke-width="1"
    vector-effect="non-scaling-stroke"
    stroke-linecap="round"
    stroke-linejoin="round"
    xmlns="http://www.w3.org/2000/svg"
  >
  <line x1="4" y1="7" x2="13" y2="7" />
  <line x1="4" y1="12" x2="11" y2="12" />
  <line x1="4" y1="17" x2="8" y2="17" />
  <line x1="18" y1="6" x2="18" y2="18" />
  <polyline points="15,9 18,6 21,9" />
</svg>
<svg
    id="artist_asc"
    width="24"
    height="24"
    viewBox="0 0 24 24"
    fill="none"
    stroke="currentColor"
    stroke-width="1"
    vector-effect="non-scaling-stroke"
    stroke-linecap="round"
    stroke-linejoin="round"
    xmlns="http://www.w3.org/2000/svg"
  >
  <circle cx="9" cy="8" r="3" />
  <path d="M 4 18 C 4 13 14 13 14 18" />
  <line x1="18" y1="6" x2="18" y2="18" />
  <polyline points="15,15 18,18 21,15" />
</svg>
<svg
    id="artist_desc"
    width="24"
    height="24"
    viewBox="0 0 24 24"
    fill="none"
    stroke="currentColor"
    stroke-width="1"
    vector-effect="non-scaling-stroke"
    stroke-linecap="round"
    stroke-linejoin="round"
    xmlns="http://www.w3.org/2000/svg"
  >
  <circle cx="9" cy="8" r="3" />
  <path d="M 4 18 C 4 13 14 13 14 18" />
  <line x1="18" y1="6" x2="18" y2="18" />
  <polyline points="15,9 18,6 21,9" />
</svg>
<svg
    id="title_asc"
    width="24"
    height="24"
    viewBox="0 0 24 24"
    fill="none"
    stroke="currentColor"
    stroke-width="1"
    vector-effect="non-scaling-stroke"
    stroke-linecap="round"
    stroke-linejoin="round"
    xmlns="http://www.w3.org/2000/svg"
  >
  <circle cx="7" cy="16" r="2" />
  <path d="M 9 16 V 6 C 11 6 13 7 13 10" />
  <line x1="18" y1="6" x2="18" y2="18" />
  <polyline points="15,15 18,18 21,15" />
</svg>
<svg
    id="title_desc"
    width="24"
    height="24"
    viewBox="0 0 24 24"
    fill="none"
    stroke="currentColor"
    stroke-width="1"
    vector-effect="non-scaling-stroke"
    stroke-linecap="round"
    stroke-linejoin="round"
    xmlns="http://www.w3.org/2000/svg"
  >
  <circle cx="7" cy="16" r="2" />
  <path d="M 9 16 V 6 C 11 6 13 7 13 10" />
  <line x1="18" y1="6" x2="18" y2="18" />
  <polyline points="15,9 18,6 21,9" />
</svg>

  <svg
    id="save_playlist_as_json"
    width="24"
    height="24"
    viewBox="0 0 24 24"
    fill="none"
    stroke="currentColor"
    stroke-width="1"
    vector-effect="non-scaling-stroke"
    stroke-linecap="round"
    stroke-linejoin="round"
    xmlns="http://www.w3.org/2000/svg"
  >
    <defs>
      <mask id="save-playlist-mask">
        <rect width="24" height="24" fill="white" stroke="none" />
        <line x1="19" y1="15" x2="19" y2="23" stroke="black" stroke-width="4" />
        <line x1="15" y1="19" x2="23" y2="19" stroke="black" stroke-width="4" />
      </mask>
    </defs>
    <g mask="url(#save-playlist-mask)">
      <polygon points="4,6 10,9.5 4,13" />
      <line x1="13" y1="7" x2="20" y2="7" />
      <line x1="13" y1="12" x2="20" y2="12" />
      <line x1="4" y1="17" x2="20" y2="17" />
    </g>
    <line class="accent" x1="19" y1="16" x2="19" y2="22" />
    <line class="accent" x1="16" y1="19" x2="22" y2="19" />
  </svg>

    <svg
    id="add_playlist"
    width="24"
    height="24"
    viewBox="0 0 24 24"
    fill="none"
    stroke="currentColor"
    stroke-width="1"
    vector-effect="non-scaling-stroke"
    stroke-linecap="round"
    stroke-linejoin="round"
    xmlns="http://www.w3.org/2000/svg"
  >
    <defs>
      <mask id="save-playlist-mask">
        <rect width="24" height="24" fill="white" stroke="none" />
        <line x1="19" y1="15" x2="19" y2="23" stroke="black" stroke-width="4" />
        <line x1="15" y1="19" x2="23" y2="19" stroke="black" stroke-width="4" />
      </mask>
    </defs>
    <g mask="url(#save-playlist-mask)">
      <polygon points="4,6 10,9.5 4,13" />
      <line x1="13" y1="7" x2="20" y2="7" />
      <line x1="13" y1="12" x2="20" y2="12" />
      <line x1="4" y1="17" x2="20" y2="17" />
    </g>
    <line class="accent" x1="19" y1="16" x2="19" y2="22" />
    <line class="accent" x1="16" y1="19" x2="22" y2="19" />
  </svg>

      <svg
    id="add_smart_playlist"
    width="24"
    height="24"
    viewBox="0 0 24 24"
    fill="none"
    stroke="currentColor"
    stroke-width="1"
    vector-effect="non-scaling-stroke"
    stroke-linecap="round"
    stroke-linejoin="round"
    xmlns="http://www.w3.org/2000/svg"
  >
    <defs>
      <mask id="save-playlist-mask">
        <rect width="24" height="24" fill="white" stroke="none" />
        <line x1="19" y1="15" x2="19" y2="23" stroke="black" stroke-width="4" />
        <line x1="15" y1="19" x2="23" y2="19" stroke="black" stroke-width="4" />
      </mask>
    </defs>
    <g mask="url(#save-playlist-mask)">
      <polygon points="4,6 10,9.5 4,13" />
      <line x1="13" y1="7" x2="20" y2="7" />
      <line x1="13" y1="12" x2="20" y2="12" />
      <line x1="4" y1="17" x2="20" y2="17" />
    </g>
    <line class="accent" x1="19" y1="16" x2="19" y2="22" />
    <line class="accent" x1="16" y1="19" x2="22" y2="19" />
  </svg>

      <svg
    id="add_playlist_from_json"
    width="24"
    height="24"
    viewBox="0 0 24 24"
    fill="none"
    stroke="currentColor"
    stroke-width="1"
    vector-effect="non-scaling-stroke"
    stroke-linecap="round"
    stroke-linejoin="round"
    xmlns="http://www.w3.org/2000/svg"
  >
    <defs>
      <mask id="save-playlist-mask">
        <rect width="24" height="24" fill="white" stroke="none" />
        <line x1="19" y1="15" x2="19" y2="23" stroke="black" stroke-width="4" />
        <line x1="15" y1="19" x2="23" y2="19" stroke="black" stroke-width="4" />
      </mask>
    </defs>
    <g mask="url(#save-playlist-mask)">
      <polygon points="4,6 10,9.5 4,13" />
      <line x1="13" y1="7" x2="20" y2="7" />
      <line x1="13" y1="12" x2="20" y2="12" />
      <line x1="4" y1="17" x2="20" y2="17" />
    </g>
    <line class="accent" x1="19" y1="16" x2="19" y2="22" />
    <line class="accent" x1="16" y1="19" x2="22" y2="19" />
  </svg>

  <svg
    id="pick_playlist_cover"
    width="24"
    height="24"
    viewBox="0 0 24 24"
    fill="none"
    stroke="currentColor"
    stroke-width="1"
    vector-effect="non-scaling-stroke"
    stroke-linecap="round"
    stroke-linejoin="round"
    xmlns="http://www.w3.org/2000/svg"
  >
    <defs>
      <mask id="pick-cover-mask">
        <rect width="24" height="24" fill="white" stroke="none" />
        <line x1="19" y1="15" x2="19" y2="23" stroke="black" stroke-width="4" />
        <line x1="15" y1="19" x2="23" y2="19" stroke="black" stroke-width="4" />
      </mask>
    </defs>
    <g mask="url(#pick-cover-mask)">
      <rect x="3" y="3" width="18" height="18" rx="2" />
      <circle cx="8.5" cy="8.5" r="1.5" />
      <polyline points="21,15 16,10 5,21" />
    </g>
    <line class="accent" x1="19" y1="16" x2="19" y2="22" />
    <line class="accent" x1="16" y1="19" x2="22" y2="19" />
  </svg>

  <svg
    id="reset_playlist_cover"
    width="24"
    height="24"
    viewBox="0 0 24 24"
    fill="none"
    stroke="currentColor"
    stroke-width="1"
    vector-effect="non-scaling-stroke"
    stroke-linecap="round"
    stroke-linejoin="round"
    xmlns="http://www.w3.org/2000/svg"
  >
    <defs>
      <mask id="reset-cover-mask">
        <rect width="24" height="24" fill="white" stroke="none" />
        <line x1="16" y1="16" x2="22" y2="22" stroke="black" stroke-width="4" />
        <line x1="22" y1="16" x2="16" y2="22" stroke="black" stroke-width="4" />
      </mask>
    </defs>
    <g mask="url(#reset-cover-mask)">
      <rect x="3" y="3" width="18" height="18" rx="2" />
      <circle cx="8.5" cy="8.5" r="1.5" />
      <polyline points="21,15 16,10 5,21" />
    </g>
    <line class="accent" x1="16" y1="16" x2="22" y2="22" />
    <line class="accent" x1="22" y1="16" x2="16" y2="22" />
  </svg>



</svg>
